<svg xmlns="http://www.w3.org/2000/svg" width="14" height="14" viewBox="0 0 14 14">
  <metadata><?xpacket begin="" id="W5M0MpCehiHzreSzNTczkc9d"?>
<x:xmpmeta xmlns:x="adobe:ns:meta/" x:xmptk="Adobe XMP Core 5.6-c138 79.159824, 2016/09/14-01:09:01        ">
   <rdf:RDF xmlns:rdf="http://www.w3.org/1999/02/22-rdf-syntax-ns#">
      <rdf:Description rdf:about=""/>
   </rdf:RDF>
</x:xmpmeta>   
<?xpacket end="w"?></metadata>
<defs>
    <style>
      .cls-1 {
        fill: #000000;
        fill-rule: evenodd;
      }
    </style>
  </defs>
  <path class="cls-1" d="M7.518,3.313a2.3,2.3,0,1,0-2.3,2.313A2.307,2.307,0,0,0,7.518,3.313ZM9.379,7.632a0.546,0.546,0,0,0-.776,0,0.556,0.556,0,0,0,0,.782l0.71,0.715L8.6,9.844a0.556,0.556,0,0,0,0,.782,0.546,0.546,0,0,0,.776,0l1.1-1.106a0.556,0.556,0,0,0,0-.782ZM9.173,5.258A3.829,3.829,0,0,0,6.089,6.824a4.2,4.2,0,0,0-5.075,4.149,0.551,0.551,0,0,0,.549.553h4.6A3.853,3.853,0,1,0,9.173,5.258Zm0,6.636a2.765,2.765,0,1,1,2.744-2.765A2.758,2.758,0,0,1,9.173,11.894Z"/>
</svg>
