<svg xmlns="http://www.w3.org/2000/svg" width="14" height="14" viewBox="0 0 14 14">
  <metadata><?xpacket begin="" id="W5M0MpCehiHzreSzNTczkc9d"?>
<x:xmpmeta xmlns:x="adobe:ns:meta/" x:xmptk="Adobe XMP Core 5.6-c138 79.159824, 2016/09/14-01:09:01        ">
   <rdf:RDF xmlns:rdf="http://www.w3.org/1999/02/22-rdf-syntax-ns#">
      <rdf:Description rdf:about=""/>
   </rdf:RDF>
</x:xmpmeta>    
<?xpacket end="w"?></metadata>
<defs>
    <style>
      .cls-1 {
        fill: 000000;
        fill-rule: evenodd;
      }
    </style>
  </defs>
  <path id="Forma_1" data-name="Forma 1" class="cls-1" d="M6.265,9.017A0.385,0.385,0,0,1,5.97,8.654V8.524H8.029v0.13a0.385,0.385,0,0,1-.294.363,0.485,0.485,0,0,1-.147.026H6.412A0.485,0.485,0,0,1,6.265,9.017ZM9.994,7H4.015V8.015h6ZM4.515,5.491a0.741,0.741,0,0,0,.618.467H8.926a0.664,0.664,0,0,0,.6-0.467l1.015-2.61A1.328,1.328,0,0,0,10.206,1.7a2.83,2.83,0,0,0-1.9-.675A2.044,2.044,0,0,0,7.912,1H5.853c-0.147,0-.294,0-0.427.013H5.412A2.363,2.363,0,0,0,3.75,1.7,1.273,1.273,0,0,0,3.47,2.868ZM2.912,5.2a0.51,0.51,0,0,0-.074-0.117,2.545,2.545,0,0,0-1.412-.156A0.4,0.4,0,0,0,1,5.309a0.639,0.639,0,0,0,.426.621H1.989V7.965H3.015S3.015,5.9,3,5.735A2.12,2.12,0,0,0,2.912,5.2Zm9.662-.241a2.529,2.529,0,0,0-1.412.156,0.511,0.511,0,0,0-.073.117,1.968,1.968,0,0,0-.074.512c-0.03.156-.03,2.217-0.03,2.217h1.026V5.93h0.563A0.6,0.6,0,0,0,13,5.34,0.4,0.4,0,0,0,12.574,4.964Zm-2.6,6.907a0.935,0.935,0,0,1,.265.039c-0.265-.6-0.956-1.077-2.5-1.193-0.1-.013-0.191-0.013-0.294-0.026V9.3H6.559v1.388c-0.1,0-.206.013-0.294,0.013-1.794.117-2.5,0.713-2.779,1.181a0.679,0.679,0,0,1,.162-0.013,0.84,0.84,0,0,1,.427.117,2.871,2.871,0,0,1,2.191-.765c0.088,0,.191-0.013.294-0.013v0.778A0.853,0.853,0,0,1,7,11.871a0.756,0.756,0,0,1,.441.13V11.223c0.1,0,.206.013,0.294,0.013a2.353,2.353,0,0,1,1.882.713A0.868,0.868,0,0,1,9.97,11.871Zm-2.6.415A0.518,0.518,0,0,0,7,12.131a0.552,0.552,0,0,0-.294.091,0.394,0.394,0,0,0-.191.324v0.026a0.489,0.489,0,0,0,.971,0V12.546A0.341,0.341,0,0,0,7.368,12.286Zm3.485,0a0.518,0.518,0,0,0-.368-0.156,0.553,0.553,0,0,0-.294.091,0.394,0.394,0,0,0-.191.324v0.026a0.489,0.489,0,0,0,.971,0V12.546A0.491,0.491,0,0,0,10.853,12.286Zm-7.042,0a0.518,0.518,0,0,0-.368-0.156,0.552,0.552,0,0,0-.294.091,0.393,0.393,0,0,0-.191.324v0.026A0.463,0.463,0,0,0,3.443,13a0.464,0.464,0,0,0,.485-0.428V12.546A0.491,0.491,0,0,0,3.811,12.286Z"/>
</svg>
