<svg xmlns="http://www.w3.org/2000/svg" width="27" height="26" viewBox="0 0 27 26">
  <metadata><?xpacket begin="" id="W5M0MpCehiHzreSzNTczkc9d"?>
<x:xmpmeta xmlns:x="adobe:ns:meta/" x:xmptk="Adobe XMP Core 5.6-c138 79.159824, 2016/09/14-01:09:01        ">
   <rdf:RDF xmlns:rdf="http://www.w3.org/1999/02/22-rdf-syntax-ns#">
      <rdf:Description rdf:about=""/>
   </rdf:RDF>
</x:xmpmeta>            
<?xpacket end="w"?></metadata>
<defs>
    <style>
      .cls-1 {
        fill: #000000;
        fill-rule: evenodd;
      }
    </style>
  </defs>
  <path id="Упущен." class="cls-1" d="M9.612,17.23a0.42,0.42,0,0,0-.6,0L7.5,18.761,6,17.23a0.42,0.42,0,0,0-.6,0,0.438,0.438,0,0,0,0,.612L6.9,19.373,5.4,20.9a0.438,0.438,0,0,0,0,.612,0.421,0.421,0,0,0,.6,0L7.5,19.985,9.01,21.516a0.421,0.421,0,0,0,.6,0,0.438,0.438,0,0,0,0-.612L8.107,19.373l1.505-1.531A0.438,0.438,0,0,0,9.612,17.23ZM25.569,18.9c-0.855-1.644-3.824-3.426-3.954-3.5a2.081,2.081,0,0,0-1.584-.28,1.421,1.421,0,0,0-.85.669,14.375,14.375,0,0,1-1.1,1.241,1.823,1.823,0,0,1-2.68-.272L10.506,11.78a1.894,1.894,0,0,1-.269-2.724A14.287,14.287,0,0,1,11.46,7.932a1.433,1.433,0,0,0,.658-0.864,2.2,2.2,0,0,0-.277-1.616C11.766,5.324,10.013,2.3,8.4,1.436a2.064,2.064,0,0,0-2.468.378l-1.08,1.1A6.068,6.068,0,0,0,3.01,8.765a11.818,11.818,0,0,0,3.077,5.18A5.637,5.637,0,0,0,7.532,25a5.556,5.556,0,0,0,5.333-4.144,12.061,12.061,0,0,0,5.5,3.519,5.989,5.989,0,0,0,1.372.165,6.074,6.074,0,0,0,4.384-2.035l1.08-1.1A2.151,2.151,0,0,0,25.569,18.9ZM7.532,24.136a4.766,4.766,0,0,1-.557-9.489H6.983c0.063-.008.12-0.012,0.18-0.017,0.122-.009.244-0.019,0.369-0.019h0a4.729,4.729,0,0,1,4.684,4.763c0,0.128-.009.254-0.019,0.38-0.005.059-.009,0.116-0.016,0.178A4.718,4.718,0,0,1,7.532,24.136ZM24.6,20.8l-1.08,1.1a4.994,4.994,0,0,1-4.962,1.64A11.35,11.35,0,0,1,13.4,20.179l-0.352-.357c0.014-.158.02-0.306,0.02-0.449a5.589,5.589,0,0,0-5.535-5.629h0c-0.14,0-.285.007-0.439,0.02A11.528,11.528,0,0,1,3.84,8.57,5.179,5.179,0,0,1,5.451,3.524l1.08-1.1A1.229,1.229,0,0,1,8,2.2c1.4,0.755,3.089,3.66,3.1,3.685a1.352,1.352,0,0,1,.194.951,0.579,0.579,0,0,1-.291.362l-0.064.045A12.653,12.653,0,0,0,9.533,8.569a3.614,3.614,0,0,0-.524,1.154A6.212,6.212,0,0,1,8.381,7.61a0.426,0.426,0,1,0-.847.09,8.3,8.3,0,0,0,2.707,5.052c0.011,0.009.024,0.013,0.035,0.02l4.517,4.594c0.019,0.019.038,0.036,0.057,0.055a0.426,0.426,0,0,0,.045.068,8.832,8.832,0,0,0,4.939,2.287l0.044,0a0.433,0.433,0,0,0,.043-0.864,7.406,7.406,0,0,1-2.362-.675,3.63,3.63,0,0,0,.993-0.5,12.659,12.659,0,0,0,1.3-1.432l0.044-.065a0.575,0.575,0,0,1,.355-0.3,1.287,1.287,0,0,1,.931.195c0.029,0.017,2.886,1.733,3.628,3.159A1.277,1.277,0,0,1,24.6,20.8Z"/>
</svg>
