<svg xmlns="http://www.w3.org/2000/svg" width="9" height="9" viewBox="0 0 14 14">
  <metadata><?xpacket begin="" id="W5M0MpCehiHzreSzNTczkc9d"?>
<x:xmpmeta xmlns:x="adobe:ns:meta/" x:xmptk="Adobe XMP Core 5.6-c138 79.159824, 2016/09/14-01:09:01        ">
   <rdf:RDF xmlns:rdf="http://www.w3.org/1999/02/22-rdf-syntax-ns#">
      <rdf:Description rdf:about=""/>
   </rdf:RDF>
</x:xmpmeta>
<?xpacket end="w"?></metadata>
<defs>
    <style>
      .cls-1 {
        fill: #d6def5;
        fill-rule: evenodd;
      }
    </style>
  </defs>
  <path id="Опции" class="cls-1" d="M11.474,5.481L11.416,5.46l-0.223-.543,0.024-.056c0.676-1.563.629-1.61,0.517-1.723l-0.9-.9a0.239,0.239,0,0,0-.158-0.064,5.688,5.688,0,0,0-1.535.615l-0.053.024L8.539,2.591,8.517,2.535C7.892,0.954,7.827.954,7.672,0.954H6.4c-0.155,0-.226,0-0.806,1.584L5.571,2.6l-0.546.227L4.973,2.8a8.294,8.294,0,0,0-1.564-.584,0.239,0.239,0,0,0-.157.063l-0.9.9C2.236,3.294,2.188,3.342,2.9,4.873L2.925,4.93,2.7,5.472l-0.055.022C1.062,6.119,1.062,6.18,1.062,6.343V7.616c0,0.163,0,.231,1.589.812l0.057,0.02L2.931,8.989l-0.024.055c-0.675,1.564-.633,1.606-0.518,1.723l0.9,0.9a0.245,0.245,0,0,0,.159.063,5.7,5.7,0,0,0,1.535-.615l0.053-.026,0.549,0.227,0.021,0.056c0.626,1.581.69,1.581,0.846,1.581H7.725c0.16,0,.226,0,0.807-1.585l0.022-.058L9.1,11.084l0.052,0.022a8.246,8.246,0,0,0,1.562.585,0.239,0.239,0,0,0,.158-0.063l0.9-.9c0.114-.116.161-0.163-0.551-1.692L11.2,8.977l0.223-.54,0.053-.021c1.588-.629,1.588-0.69,1.588-0.853V6.29C13.063,6.127,13.063,6.06,11.474,5.481ZM7.062,9.017A2.063,2.063,0,1,1,9.124,6.954,2.065,2.065,0,0,1,7.062,9.017Z"/>
</svg>
