<svg xmlns="http://www.w3.org/2000/svg" width="14" height="14" viewBox="0 0 14 14">
  <metadata><?xpacket begin="" id="W5M0MpCehiHzreSzNTczkc9d"?>
<x:xmpmeta xmlns:x="adobe:ns:meta/" x:xmptk="Adobe XMP Core 5.6-c138 79.159824, 2016/09/14-01:09:01        ">
   <rdf:RDF xmlns:rdf="http://www.w3.org/1999/02/22-rdf-syntax-ns#">
      <rdf:Description rdf:about=""/>
   </rdf:RDF>
</x:xmpmeta>
<?xpacket end="w"?></metadata>
<defs>
    <style>
      .cls-1 {
        fill: #000000;
        fill-rule: evenodd;
      }
    </style>
  </defs>
  <path class="cls-1" d="M5.574,4.913L5.8,4.681a1.276,1.276,0,0,0,.414-0.9,1.281,1.281,0,0,0-.414-0.9l-0.742-.74C4.976,2.059,4.893,1.974,4.809,1.888c-0.167-.169-0.336-0.342-0.5-0.5A1.232,1.232,0,0,0,3.429,1a1.277,1.277,0,0,0-.888.387l-0.936.931a1.932,1.932,0,0,0-.573,1.225,4.571,4.571,0,0,0,.346,1.99A11.613,11.613,0,0,0,3.45,8.981,12.71,12.71,0,0,0,7.693,12.3a6.614,6.614,0,0,0,2.374.7c0.058,0,.114.005,0.169,0.005a1.971,1.971,0,0,0,1.526-.654,0.055,0.055,0,0,0,.01-0.012,6.313,6.313,0,0,1,.479-0.5c0.116-.113.237-0.229,0.351-0.35A1.2,1.2,0,0,0,12.6,9.7L11.1,8.2a1.22,1.22,0,0,0-.88-0.405,1.252,1.252,0,0,0-.888.4L8.445,9.09C8.364,9.042,8.281,9,8.2,8.961c-0.1-.05-0.192-0.1-0.275-0.148A9.364,9.364,0,0,1,5.672,6.765a5.351,5.351,0,0,1-.759-1.21C5.145,5.345,5.365,5.124,5.574,4.913ZM7.893,6.128a2.138,2.138,0,0,0,.626.091,0.308,0.308,0,0,0,.22-0.091l3.254-3.184V4.47a0.483,0.483,0,0,0,.467.31,0.627,0.627,0,0,0,.56-0.31V1.324a0.31,0.31,0,0,0-.31-0.309H9.555a0.8,0.8,0,0,0-.31.653,0.31,0.31,0,0,0,.31.31h1.626L7.893,5.1A1.5,1.5,0,0,0,7.893,6.128Z"/>
</svg>
