<svg xmlns="http://www.w3.org/2000/svg" width="27" height="26" viewBox="0 0 27 26">
  <metadata><?xpacket begin="" id="W5M0MpCehiHzreSzNTczkc9d"?>
<x:xmpmeta xmlns:x="adobe:ns:meta/" x:xmptk="Adobe XMP Core 5.6-c138 79.159824, 2016/09/14-01:09:01        ">
   <rdf:RDF xmlns:rdf="http://www.w3.org/1999/02/22-rdf-syntax-ns#">
      <rdf:Description rdf:about=""/>
   </rdf:RDF>
</x:xmpmeta>       
<?xpacket end="w"?></metadata>
<defs>
    <style>
      .cls-1 {
        fill: #7c86a2;
        fill-rule: evenodd;
      }
    </style>
  </defs>
  <path id="Исходящ." class="cls-1" d="M2,24.983H13V14.963H2v10.02Zm1.015-8.969h4V21.08L5.245,19.344l-0.581.635,2.786,2.714,2.724-2.714-0.581-.635L7.986,21.08V16.013h4V24H3.012V16.013Zm22.572,1.711c-0.825-1.536-3.689-3.2-3.815-3.274a2.056,2.056,0,0,0-1.528-.261,1.366,1.366,0,0,0-.82.626,13.736,13.736,0,0,1-1.064,1.16,1.8,1.8,0,0,1-2.585-.255l-4.718-4.647a1.734,1.734,0,0,1-.26-2.545,13.638,13.638,0,0,1,1.179-1.05,1.349,1.349,0,0,0,.635-0.808,1.976,1.976,0,0,0-.268-1.509c-0.071-.12-1.762-2.941-3.321-3.753a2.04,2.04,0,0,0-2.38.353L5.6,2.787c-2.478,2.44-2.559,5.422-.235,8.623a0.415,0.415,0,0,0,.573.093,0.4,0.4,0,0,0,.1-0.565c-2.117-2.917-2.069-5.4.148-7.58L7.22,2.332a1.212,1.212,0,0,1,1.415-.21c1.353,0.705,2.98,3.42,2.994,3.443a1.229,1.229,0,0,1,.188.888,0.546,0.546,0,0,1-.28.338l-0.062.042a12.068,12.068,0,0,0-1.359,1.238,3.313,3.313,0,0,0-.505,1.079A5.671,5.671,0,0,1,9,7.176a0.414,0.414,0,0,0-.451-0.361,0.407,0.407,0,0,0-.366.445A7.708,7.708,0,0,0,10.8,11.981a0.309,0.309,0,0,0,.034.019l4.358,4.293c0.018,0.018.037,0.034,0.056,0.051a0.375,0.375,0,0,0,.043.063,8.618,8.618,0,0,0,4.764,2.137l0.043,0a0.4,0.4,0,0,0,.042-0.807,7.327,7.327,0,0,1-2.279-.631,3.565,3.565,0,0,0,.959-0.464,12.044,12.044,0,0,0,1.257-1.338l0.043-.061a0.552,0.552,0,0,1,.343-0.277,1.268,1.268,0,0,1,.9.182C22.131,15.6,24.264,17,24.859,18.1a1.168,1.168,0,0,1-.213,1.394L23.6,20.523c-2.246,2.213-4.8,2.234-7.811.064a0.414,0.414,0,0,0-.574.087,0.4,0.4,0,0,0,.089.565,8.048,8.048,0,0,0,4.644,1.747A5.947,5.947,0,0,0,24.184,21.1l1.042-1.026A1.962,1.962,0,0,0,25.585,17.725Z"/>
</svg>
