<svg xmlns="http://www.w3.org/2000/svg" width="27" height="26" viewBox="0 0 27 26">
  <metadata><?xpacket begin="" id="W5M0MpCehiHzreSzNTczkc9d"?>
<x:xmpmeta xmlns:x="adobe:ns:meta/" x:xmptk="Adobe XMP Core 5.6-c138 79.159824, 2016/09/14-01:09:01        ">
   <rdf:RDF xmlns:rdf="http://www.w3.org/1999/02/22-rdf-syntax-ns#">
      <rdf:Description rdf:about=""/>
   </rdf:RDF>
</x:xmpmeta>              
<?xpacket end="w"?></metadata>
<defs>
    <style>
      .cls-1 {
        fill: #000000;
        fill-rule: evenodd;
      }
    </style>
  </defs>
  <path id="Принятые" class="cls-1" d="M8.71,16.961L6.327,20.442l-1.681-1.4a0.421,0.421,0,0,0-.6.06,0.437,0.437,0,0,0,.059.609l2.038,1.7a0.421,0.421,0,0,0,.27.1,0.385,0.385,0,0,0,.058,0,0.425,0.425,0,0,0,.291-0.181l2.646-3.866a0.438,0.438,0,0,0-.106-0.6A0.42,0.42,0,0,0,8.71,16.961ZM24.569,18.9c-0.855-1.644-3.824-3.426-3.954-3.5a2.08,2.08,0,0,0-1.584-.28,1.421,1.421,0,0,0-.85.669,14.37,14.37,0,0,1-1.1,1.241,1.823,1.823,0,0,1-2.68-.272L9.506,11.78a1.894,1.894,0,0,1-.269-2.724A14.3,14.3,0,0,1,10.46,7.932a1.433,1.433,0,0,0,.658-0.864,2.2,2.2,0,0,0-.278-1.616C10.766,5.324,9.013,2.3,7.4,1.436a2.064,2.064,0,0,0-2.468.378l-1.08,1.1A6.068,6.068,0,0,0,2.01,8.765a11.819,11.819,0,0,0,3.077,5.18A5.637,5.637,0,0,0,6.532,25a5.556,5.556,0,0,0,5.333-4.144,12.061,12.061,0,0,0,5.5,3.519,5.988,5.988,0,0,0,1.372.165,6.074,6.074,0,0,0,4.384-2.035l1.08-1.1A2.151,2.151,0,0,0,24.569,18.9ZM6.532,24.136a4.766,4.766,0,0,1-.557-9.489H5.983c0.063-.008.121-0.012,0.18-0.017,0.122-.009.244-0.019,0.369-0.019h0a4.729,4.729,0,0,1,4.683,4.763c0,0.128-.009.254-0.019,0.38-0.005.059-.009,0.116-0.016,0.178A4.718,4.718,0,0,1,6.532,24.136ZM23.6,20.8l-1.08,1.1a4.994,4.994,0,0,1-4.962,1.64A11.35,11.35,0,0,1,12.4,20.179l-0.352-.357c0.014-.158.02-0.306,0.02-0.449a5.589,5.589,0,0,0-5.535-5.629h0c-0.14,0-.285.007-0.439,0.02A11.528,11.528,0,0,1,2.84,8.57,5.179,5.179,0,0,1,4.451,3.524l1.08-1.1A1.229,1.229,0,0,1,7,2.2c1.4,0.755,3.089,3.66,3.1,3.685a1.352,1.352,0,0,1,.195.951,0.58,0.58,0,0,1-.291.362l-0.064.045A12.641,12.641,0,0,0,8.533,8.569a3.611,3.611,0,0,0-.524,1.154A6.215,6.215,0,0,1,7.381,7.61a0.426,0.426,0,1,0-.847.09,8.3,8.3,0,0,0,2.707,5.052c0.011,0.009.024,0.013,0.035,0.02l4.517,4.594c0.019,0.019.038,0.036,0.057,0.055a0.413,0.413,0,0,0,.045.068,8.831,8.831,0,0,0,4.938,2.287l0.044,0a0.433,0.433,0,0,0,.043-0.864,7.405,7.405,0,0,1-2.362-.675,3.63,3.63,0,0,0,.993-0.5,12.65,12.65,0,0,0,1.3-1.432l0.044-.065a0.575,0.575,0,0,1,.356-0.3,1.287,1.287,0,0,1,.931.195c0.029,0.017,2.886,1.733,3.628,3.159A1.277,1.277,0,0,1,23.6,20.8Z"/>
</svg>
