<svg xmlns="http://www.w3.org/2000/svg" width="30" height="22" viewBox="0 0 30 22">
  <metadata><?xpacket begin="﻿" id="W5M0MpCehiHzreSzNTczkc9d"?>
<x:xmpmeta xmlns:x="adobe:ns:meta/" x:xmptk="Adobe XMP Core 5.6-c138 79.159824, 2016/09/14-01:09:01        ">
   <rdf:RDF xmlns:rdf="http://www.w3.org/1999/02/22-rdf-syntax-ns#">
      <rdf:Description rdf:about=""/>
   </rdf:RDF>
</x:xmpmeta>
                                                                                                    
                                                                                                    
                                                                                                    
                                                                                                    
                                                                                                    
                                                                                                    
                                                                                                    
                                                                                                    
                                                                                                    
                                                                                                    
                                                                                                    
                                                                                                    
                                                                                                    
                                                                                                    
                                                                                                    
                                                                                                    
                                                                                                    
                                                                                                    
                                                                                                    
                                                                                                    
                           
<?xpacket end="w"?></metadata>
<defs>
    <style>
      .cls-1 {
        fill: #fff;
        fill-rule: evenodd;
      }
    </style>
  </defs>
  <path class="cls-1" d="M29.951,21.449l-2.959-5.734V0.363A0.366,0.366,0,0,0,26.625,0H3.324a0.366,0.366,0,0,0-.367.363V15.715l-2.9,5.765a0.358,0.358,0,0,0,.018.351A0.374,0.374,0,0,0,.386,22H29.633A0.366,0.366,0,0,0,30,21.637,0.391,0.391,0,0,0,29.951,21.449ZM4,0.976H26V15H4V0.976H4Zm6.991,20.012,0.607-.981h6.921L19,20.988h-8ZM20.022,21A0.12,0.12,0,0,0,20,20.95L19.08,19.205a0.37,0.37,0,0,0-.331-0.2H11.281a0.37,0.37,0,0,0-.331.2l-0.937,1.769C10.008,20.981,10.008,20.993,10,21H1.354l2.577-4.986H26.024L28.576,21H20.022Z"/>
</svg>
