<svg xmlns="http://www.w3.org/2000/svg" width="14" height="14" viewBox="0 0 14 14">
  <metadata><?xpacket begin="" id="W5M0MpCehiHzreSzNTczkc9d"?>
<x:xmpmeta xmlns:x="adobe:ns:meta/" x:xmptk="Adobe XMP Core 5.6-c138 79.159824, 2016/09/14-01:09:01        ">
   <rdf:RDF xmlns:rdf="http://www.w3.org/1999/02/22-rdf-syntax-ns#">
      <rdf:Description rdf:about=""/>
   </rdf:RDF>
</x:xmpmeta>
<?xpacket end="w"?></metadata>
<defs>
    <style>
      .cls-1 {
        fill: #000000;
        fill-rule: evenodd;
      }
    </style>
  </defs>
  <path class="cls-1" d="M1.328,6.126a4.1,4.1,0,0,1-.309-1.758,1.515,1.515,0,0,1,.456-0.976l0.881-.88a0.839,0.839,0,0,1,1.254,0c0.245,0.228.474,0.473,0.717,0.716l0.7,0.7a0.831,0.831,0,0,1,0,1.287C4.731,5.508,4.456,5.8,4.145,6.077a0.181,0.181,0,0,0-.049.228,5.334,5.334,0,0,0,.783,1.27,9.178,9.178,0,0,0,2.2,2c0.179,0.113.39,0.2,0.569,0.309a0.184,0.184,0,0,0,.245-0.049l0.881-.88a0.818,0.818,0,0,1,1.254,0l1.418,1.417a0.854,0.854,0,0,1,0,1.287c-0.26.277-.555,0.52-0.8,0.814A1.609,1.609,0,0,1,9.278,13a5.878,5.878,0,0,1-2.135-.635A11.706,11.706,0,0,1,3.234,9.3,10.849,10.849,0,0,1,1.328,6.126Zm9.559-1.518V5.972a0.748,0.748,0,0,1-.748.748h0a0.748,0.748,0,0,1-.748-0.748V4.609H8.024a0.748,0.748,0,0,1-.748-0.748h0a0.748,0.748,0,0,1,.748-0.748H9.388V1.747A0.748,0.748,0,0,1,10.137,1h0a0.748,0.748,0,0,1,.748.748V3.113h1.367A0.748,0.748,0,0,1,13,3.861h0a0.748,0.748,0,0,1-.748.748H10.887Z"/>
</svg>
